<svg width="35" height="38" viewBox="0 0 35 38" fill="none" xmlns="http://www.w3.org/2000/svg">
<path d="M27.192 23.4531H13.1694C12.9368 23.4535 12.7109 23.368 12.5289 23.2106C12.3469 23.0532 12.2196 22.8333 12.168 22.587L9.80683 11.4186C9.7723 11.2554 9.77209 11.0859 9.80623 10.9227C9.84037 10.7594 9.90798 10.6066 10.004 10.4757C10.1001 10.3447 10.2221 10.239 10.361 10.1663C10.4999 10.0936 10.6521 10.0559 10.8062 10.0559H29.5552C29.7095 10.0555 29.862 10.093 30.0011 10.1656C30.1403 10.2381 30.2625 10.3438 30.3588 10.4748C30.4551 10.6058 30.5229 10.7587 30.5571 10.9221C30.5914 11.0855 30.5912 11.2552 30.5566 11.4186L28.1914 22.587C28.1398 22.8329 28.0129 23.0526 27.8313 23.2099C27.6497 23.3673 27.4243 23.453 27.192 23.4531ZM13.9856 21.2266H26.3758L28.2673 12.2847H12.0935L13.9856 21.2266Z" fill="black"/>
<path d="M15.1758 33.3984C14.3986 33.3984 13.639 33.1482 12.9928 32.6795C12.3466 32.2107 11.843 31.5444 11.5456 30.7649C11.2482 29.9854 11.1704 29.1276 11.322 28.3001C11.4736 27.4725 11.8478 26.7124 12.3974 26.1158C12.9469 25.5191 13.647 25.1128 14.4092 24.9482C15.1714 24.7836 15.9615 24.8681 16.6795 25.191C17.3975 25.5139 18.0111 26.0607 18.4429 26.7622C18.8746 27.4638 19.1051 28.2886 19.1051 29.1323C19.104 30.2634 18.6897 31.3478 17.953 32.1476C17.2164 32.9474 16.2176 33.3973 15.1758 33.3984ZM15.1758 27.0935C14.8042 27.0935 14.441 27.2132 14.1321 27.4373C13.8231 27.6615 13.5824 27.98 13.4402 28.3528C13.298 28.7255 13.2609 29.1356 13.3334 29.5312C13.406 29.9269 13.5849 30.2903 13.8477 30.5755C14.1105 30.8607 14.4453 31.0549 14.8097 31.1335C15.1742 31.2121 15.5519 31.1716 15.8951 31.0171C16.2384 30.8627 16.5317 30.6011 16.7381 30.2656C16.9444 29.9301 17.0544 29.5357 17.0543 29.1323C17.0538 28.5917 16.8557 28.0733 16.5035 27.6911C16.1513 27.3088 15.6738 27.0939 15.1758 27.0935Z" fill="black"/>
<path d="M25.185 33.3984C24.4078 33.3984 23.6481 33.1482 23.002 32.6795C22.3558 32.2107 21.8522 31.5444 21.5548 30.7649C21.2574 29.9854 21.1796 29.1276 21.3312 28.3001C21.4828 27.4725 21.857 26.7124 22.4065 26.1158C22.956 25.5191 23.6562 25.1128 24.4184 24.9482C25.1806 24.7836 25.9707 24.8681 26.6886 25.191C27.4066 25.5139 28.0203 26.0607 28.452 26.7622C28.8838 27.4638 29.1143 28.2886 29.1143 29.1323C29.1132 30.2634 28.6988 31.3478 27.9622 32.1476C27.2255 32.9474 26.2267 33.3973 25.185 33.3984ZM25.185 27.0935C24.8134 27.0935 24.4502 27.2132 24.1412 27.4373C23.8323 27.6615 23.5915 27.98 23.4494 28.3528C23.3072 28.7255 23.2701 29.1356 23.3426 29.5312C23.4151 29.9269 23.5941 30.2903 23.8569 30.5755C24.1197 30.8607 24.4545 31.0549 24.8189 31.1335C25.1833 31.2121 25.5611 31.1716 25.9043 31.0171C26.2476 30.8627 26.5409 30.6011 26.7472 30.2656C26.9536 29.9301 27.0636 29.5357 27.0635 29.1323C27.0629 28.5917 26.8648 28.0733 26.5126 27.6911C26.1604 27.3088 25.6829 27.0939 25.185 27.0935Z" fill="black"/>
<path d="M10.8063 12.2825C10.591 12.2824 10.3812 12.2089 10.2067 12.0722C10.0321 11.9355 9.90151 11.7427 9.8335 11.521L8.07598 5.78906H4.83301C4.56106 5.78906 4.30025 5.67177 4.10795 5.46299C3.91565 5.25421 3.80762 4.97104 3.80762 4.67578C3.80762 4.38052 3.91565 4.09735 4.10795 3.88857C4.30025 3.67979 4.56106 3.5625 4.83301 3.5625H8.81836C9.0336 3.56252 9.24337 3.63608 9.41796 3.77275C9.59255 3.90942 9.7231 4.10227 9.79111 4.32398L11.7824 10.8174C11.8338 10.9847 11.8477 11.1629 11.8232 11.3372C11.7987 11.5116 11.7364 11.6771 11.6414 11.8202C11.5464 11.9633 11.4214 12.0798 11.2768 12.1602C11.1322 12.2405 10.9721 12.2824 10.8097 12.2825H10.8063Z" fill="black"/>
</svg>
