<svg width="45" height="45" viewBox="0 0 45 45" fill="none" xmlns="http://www.w3.org/2000/svg">
<path d="M35.1981 44.6875H9.41684C7.98253 44.6872 6.56723 44.3593 5.27889 43.7289C3.99056 43.0985 2.86322 42.1822 1.98287 41.0498C1.10251 39.9174 0.492404 38.599 0.199072 37.195C-0.0942603 35.791 -0.063065 34.3385 0.290278 32.9484L5.51528 11.6187C5.60938 11.2374 5.83126 10.8998 6.14399 10.6621C6.45671 10.4244 6.84141 10.3011 7.23403 10.3125H36.0231C36.4022 10.2951 36.7764 10.4038 37.0873 10.6214C37.3982 10.839 37.6284 11.1535 37.7418 11.5156L44.2387 32.4156C44.6829 33.8352 44.7852 35.3396 44.5373 36.8062C44.2894 38.2728 43.6982 39.66 42.8122 40.8547C41.9406 42.0544 40.7947 43.0283 39.4702 43.695C38.1457 44.3618 36.6809 44.7021 35.1981 44.6875ZM8.52309 13.75L3.5559 33.7734C3.33471 34.6569 3.31698 35.579 3.50406 36.4703C3.69114 37.3616 4.07815 38.1987 4.63589 38.9187C5.19364 39.6386 5.90756 40.2225 6.72383 40.6264C7.5401 41.0302 8.43741 41.2434 9.34809 41.25H35.1293C36.0647 41.2515 36.9871 41.0311 37.8207 40.6068C38.6543 40.1825 39.3754 39.5665 39.9247 38.8094C40.4897 38.0479 40.8668 37.1637 41.0251 36.2288C41.1834 35.2938 41.1185 34.3347 40.8356 33.4297L34.7856 13.75H8.52309Z" fill="white"/>
<path d="M29.1481 24.0625C28.6922 24.0625 28.2551 23.8814 27.9327 23.5591C27.6104 23.2368 27.4293 22.7996 27.4293 22.3438V8.59375C27.4293 7.22623 26.8861 5.91472 25.9191 4.94773C24.9521 3.98075 23.6406 3.4375 22.2731 3.4375C20.9056 3.4375 19.5941 3.98075 18.6271 4.94773C17.6601 5.91472 17.1168 7.22623 17.1168 8.59375V22.3438C17.1168 22.7996 16.9358 23.2368 16.6134 23.5591C16.2911 23.8814 15.8539 24.0625 15.3981 24.0625C14.9422 24.0625 14.5051 23.8814 14.1827 23.5591C13.8604 23.2368 13.6793 22.7996 13.6793 22.3438V8.59375C13.6793 6.31455 14.5847 4.12869 16.1964 2.51705C17.808 0.90541 19.9939 0 22.2731 0C24.5523 0 26.7381 0.90541 28.3498 2.51705C29.9614 4.12869 30.8668 6.31455 30.8668 8.59375V22.3438C30.8668 22.7996 30.6858 23.2368 30.3634 23.5591C30.0411 23.8814 29.6039 24.0625 29.1481 24.0625Z" fill="white"/>
</svg>
