<svg width="39" height="46" viewBox="0 0 39 46" fill="none" xmlns="http://www.w3.org/2000/svg">
<path d="M4.89062 15.0547C4.89062 23.0898 11.4648 29.6641 19.5 29.6641C27.5352 29.6641 34.1094 23.0898 34.1094 15.0547C34.1094 7.01953 27.5352 0.445312 19.5 0.445312C11.4648 0.445312 4.89062 7.01953 4.89062 15.0547ZM30.6719 15.0547C30.6719 21.1992 25.6445 26.2266 19.5 26.2266C13.3555 26.2266 8.32812 21.1992 8.32812 15.0547C8.32812 8.91016 13.3555 3.88281 19.5 3.88281C25.6445 3.88281 30.6719 8.91016 30.6719 15.0547Z" fill="white"/>
<path d="M2.48437 45.3047C7.03906 40.75 13.0547 38.2578 19.5 38.2578C25.9453 38.2578 31.9609 40.75 36.5156 45.3047L38.9648 42.8555C33.7656 37.6992 26.8477 34.8203 19.5 34.8203C12.1523 34.8203 5.23438 37.6992 0.0351562 42.8555L2.48437 45.3047Z" fill="white"/>
</svg>
